<svg xmlns="http://www.w3.org/2000/svg" width="1200" height="630" viewBox="0 0 1200 630" role="img" aria-label="Webleee builds, hosts, and manages websites for businesses">
  <defs>
    <linearGradient id="bg" x1="0" x2="1" y1="0" y2="1">
      <stop offset="0" stop-color="#030812"/>
      <stop offset="0.55" stop-color="#07111f"/>
      <stop offset="1" stop-color="#0f2747"/>
    </linearGradient>
    <radialGradient id="glow" cx="78%" cy="20%" r="50%">
      <stop offset="0" stop-color="#0b63e5" stop-opacity="0.7"/>
      <stop offset="1" stop-color="#0b63e5" stop-opacity="0"/>
    </radialGradient>
  </defs>
  <rect width="1200" height="630" fill="url(#bg)"/>
  <rect width="1200" height="630" fill="url(#glow)"/>
  <rect x="70" y="70" width="1060" height="490" rx="42" fill="none" stroke="#ffffff" stroke-opacity="0.12" stroke-width="2"/>
  <g transform="translate(100 105)">
    <rect width="92" height="92" rx="24" fill="#0b63e5"/>
    <path d="M22 29h12l8 31 10-44h12l10 44 8-31h12L80 76H67L58 39l-9 37H36L22 29Z" fill="#fff"/>
    <circle cx="79" cy="13" r="10" fill="#8bea45"/>
  </g>
  <text x="100" y="260" fill="#ffffff" font-family="Inter, Arial, sans-serif" font-size="72" font-weight="900" letter-spacing="0">Websites built, hosted, and managed.</text>
  <text x="100" y="345" fill="#d7e4f4" font-family="Inter, Arial, sans-serif" font-size="34" font-weight="650">Webleee helps businesses launch and maintain modern websites.</text>
  <g transform="translate(100 430)">
    <rect width="190" height="54" rx="27" fill="#8bea45"/>
    <text x="30" y="36" fill="#030812" font-family="Inter, Arial, sans-serif" font-size="20" font-weight="850">Build</text>
    <rect x="214" width="190" height="54" rx="27" fill="#ffffff" fill-opacity="0.12" stroke="#ffffff" stroke-opacity="0.18"/>
    <text x="244" y="36" fill="#ffffff" font-family="Inter, Arial, sans-serif" font-size="20" font-weight="850">Deploy</text>
    <rect x="428" width="190" height="54" rx="27" fill="#ffffff" fill-opacity="0.12" stroke="#ffffff" stroke-opacity="0.18"/>
    <text x="458" y="36" fill="#ffffff" font-family="Inter, Arial, sans-serif" font-size="20" font-weight="850">Manage</text>
  </g>
  <text x="100" y="535" fill="#9fb1c7" font-family="Inter, Arial, sans-serif" font-size="22" font-weight="700">www.webleee.com</text>
</svg>
